# xmcd
#
# Track frame offsets: 
#        150
#        23727
#        53962
#        86370
#        100672
#        136085
#        159275
#        172647
#        195867
#        209402
#        240057
#        256000
#        276022
#        288157
#
# Disc length: 4005 seconds
#
# Revision: 2
# Processed by: cddbd v1.5.2PL0 Copyright (c) Steve Scherf et al.
# Submitted via: ExactAudioCopyFreeDBPlugin 1.0
#
DISCID=9b0fa30e
DTITLE=Eddy Clearwater - Blues Hang Out
DYEAR=1992
DGENRE=Blues
TTITLE0=Blues Hang Out
TTITLE1=Somebody Please Help Me
TTITLE2=I Came Up The Hard Way
TTITLE3=Set It Out
TTITLE4=Stormy Monday Blues
TTITLE5=I Don't Know Why
TTITLE6=Boogie Woogie Blues
TTITLE7=Blues For Breakfast
TTITLE8=Miss You So
TTITLE9=Chicago Daily Blues
TTITLE10=That's My Baby
TTITLE11=You Upset Me Baby
TTITLE12=Hound Dog
TTITLE13=Lay My Guitar Down
EXTD=
EXTT0=
EXTT1=
EXTT2=
EXTT3=
EXTT4=
EXTT5=
EXTT6=
EXTT7=
EXTT8=
EXTT9=
EXTT10=
EXTT11=
EXTT12=
EXTT13=
PLAYORDER=
